<svg xmlns="http://www.w3.org/2000/svg" xml:space="preserve" fill-rule="evenodd" stroke-linejoin="round" stroke-miterlimit="2" clip-rule="evenodd" viewBox="0 0 631 215"><g fill-rule="nonzero"><path d="M241.158 62.33h8.95l13.246 39.012 13.161-39.012h8.853v46.139h-5.938V81.247c0-.965.022-2.52.065-4.663.043-2.197.064-4.555.064-7.02l-13.156 38.905h-6.19l-13.246-38.905v1.394c0 1.125.027 2.893.075 5.198.054 2.304.08 4.019.08 5.09v27.223h-5.964V62.33ZM288.085 62.33h7.288l13.247 22.185 13.252-22.185h7.314L311.76 89.874v18.595h-6.249V89.874L288.085 62.33Z"/></g><g fill-rule="nonzero"><path d="M363.85 103.686c-3.457 3.161-7.872 4.77-13.252 4.77-6.656 0-11.891-2.144-15.696-6.431-3.81-4.287-5.718-10.182-5.718-17.63 0-8.092 2.165-14.309 6.5-18.703 3.767-3.804 8.564-5.68 14.383-5.68 7.786 0 13.477 2.519 17.078 7.663 1.989 2.84 3.055 5.734 3.205 8.628h-9.673c-.627-2.198-1.43-3.912-2.416-5.038-1.758-1.982-4.368-3-7.819-3-3.515 0-6.29 1.393-8.322 4.233-2.03 2.84-3.044 6.86-3.044 12.057 0 5.198 1.072 9.056 3.216 11.682 2.148 2.572 4.876 3.858 8.182 3.858 3.392 0 5.975-1.125 7.754-3.322.987-1.179 1.801-3 2.45-5.359h9.576c-.836 5.037-2.97 9.11-6.404 12.272ZM394.888 108.455c-6.613 0-11.666-1.822-15.166-5.412-4.688-4.394-7.03-10.771-7.03-19.077 0-8.467 2.342-14.844 7.03-19.078 3.5-3.644 8.553-5.412 15.166-5.412 6.618 0 11.671 1.768 15.17 5.412 4.668 4.234 6.999 10.61 6.999 19.078 0 8.306-2.331 14.683-6.999 19.077-3.499 3.59-8.552 5.412-15.17 5.412Zm9.142-12.432c2.24-2.84 3.36-6.86 3.36-12.057 0-5.198-1.126-9.217-3.376-12.058-2.251-2.84-5.295-4.233-9.126-4.233-3.826 0-6.886 1.393-9.164 4.233-2.283 2.84-3.424 6.86-3.424 12.058 0 5.198 1.141 9.217 3.424 12.057 2.278 2.84 5.338 4.233 9.164 4.233 3.831 0 6.88-1.393 9.142-4.233ZM430.073 107.169h-9.008v-46.3h14.067l8.413 36.386L451.9 60.87h13.906v46.3h-9.008V75.874c0-.911.011-2.197.032-3.805.022-1.607.033-2.894.033-3.751l-8.762 38.851h-9.388l-8.698-38.851c0 .857.011 2.144.032 3.751.022 1.608.027 2.894.027 3.805v31.295ZM491.227 90.503H481.4v16.666h-9.608v-46.3h20.16c4.646 0 8.354 1.18 11.114 3.59 2.765 2.412 4.147 6.056 4.147 11.093 0 5.466-1.382 9.325-4.147 11.575-2.76 2.25-6.71 3.376-11.838 3.376Zm4.523-9.645c1.254-1.072 1.886-2.84 1.886-5.252 0-2.411-.637-4.126-1.902-5.144-1.265-1.019-3.038-1.555-5.321-1.555h-9.014v13.665h9.014c2.283 0 4.062-.59 5.337-1.714ZM533.845 97.63h-17.051l-3.205 9.539h-10.106l16.515-46.3h10.927l16.387 46.3h-10.487l-2.98-9.539Zm-2.7-7.93-5.777-18.22-5.97 18.22h11.747ZM587.4 107.169h-9.672l-18.9-32.903v32.903h-9.013v-46.3h10.138l18.434 32.314V60.869h9.014v46.3ZM630.56 60.87 615.08 89.752v17.416h-9.673V89.753l-16.012-28.884h11.398l9.609 20.15 9.2-20.15h10.96Z"/></g><g fill-rule="nonzero"><path d="M243.837 121.534c.049-1.35.282-2.332.702-2.945.755-1.105 2.21-1.657 4.37-1.657h.629c.214.03.46.03.736.061v2.946c-.338 0-.58-.03-.727-.03h-.424c-.982 0-1.57.245-1.76.736-.194.521-.29 1.81-.29 3.896h3.201v2.547h-3.237v16.63h-3.2v-16.63h-2.68v-2.547h2.68v-3.007ZM251.507 124.45h3.075v3.344c.252-.645.868-1.442 1.85-2.363.985-.951 2.117-1.411 3.4-1.411.058 0 .16 0 .304.03.144 0 .39.031.74.062v3.436c-.194-.061-.372-.061-.532-.092h-.53c-1.63 0-2.885.522-3.76 1.565-.874 1.043-1.313 2.24-1.313 3.62v11.078h-3.234v-19.27ZM269.856 124.02c1.366 0 2.691.337 3.974.982 1.282.613 2.258 1.472 2.93 2.485.647.951 1.077 2.086 1.295 3.375.19.89.288 2.301.288 4.265H264.23c.058 1.933.521 3.529 1.384 4.695.862 1.196 2.2 1.78 4.01 1.78 1.688 0 3.038-.553 4.044-1.688a5.552 5.552 0 0 0 1.224-2.24h3.182c-.086.706-.365 1.503-.837 2.363a9.344 9.344 0 0 1-1.59 2.147c-.985.952-2.2 1.596-3.651 1.933-.78.185-1.66.277-2.642.277-2.396 0-4.43-.86-6.097-2.608-1.663-1.75-2.497-4.204-2.497-7.334 0-3.099.837-5.584 2.516-7.517 1.678-1.933 3.872-2.915 6.581-2.915Zm5.161 8.53c-.132-1.412-.439-2.516-.917-3.375-.887-1.535-2.369-2.332-4.443-2.332-1.485 0-2.731.552-3.737 1.626-1.007 1.074-1.54 2.424-1.602 4.08h10.7ZM288.493 124.02c1.366 0 2.691.337 3.974.982 1.283.613 2.258 1.472 2.93 2.485.648.951 1.077 2.086 1.295 3.375.19.89.285 2.301.285 4.265h-14.11c.057 1.933.52 3.529 1.383 4.695.862 1.196 2.2 1.78 4.01 1.78 1.688 0 3.038-.553 4.044-1.688a5.546 5.546 0 0 0 1.222-2.24h3.181c-.082.706-.362 1.503-.834 2.363a9.264 9.264 0 0 1-1.593 2.147c-.981.952-2.197 1.596-3.648 1.933-.78.185-1.66.277-2.642.277-2.4 0-4.43-.86-6.097-2.608-1.666-1.75-2.497-4.204-2.497-7.334 0-3.099.837-5.584 2.516-7.517 1.678-1.933 3.872-2.915 6.581-2.915Zm5.158 8.53c-.132-1.412-.435-2.516-.914-3.375-.89-1.535-2.369-2.332-4.443-2.332-1.485 0-2.73.552-3.737 1.626-1.01 1.074-1.54 2.424-1.602 4.08h10.696ZM299.202 117.3h3.237v26.41h-3.237zM313.092 141.632c2.145 0 3.615-.828 4.413-2.455.798-1.595 1.196-3.405 1.196-5.4 0-1.81-.288-3.252-.865-4.388-.908-1.78-2.48-2.67-4.71-2.67-1.976 0-3.415.768-4.314 2.271-.899 1.504-1.347 3.345-1.347 5.462 0 2.056.448 3.774 1.347 5.124.9 1.381 2.326 2.056 4.28 2.056Zm.126-17.735c2.48 0 4.578.828 6.29 2.485 1.716 1.657 2.572 4.081 2.572 7.303 0 3.1-.755 5.676-2.265 7.702-1.51 2.025-3.854 3.037-7.03 3.037-2.647 0-4.752-.89-6.311-2.7-1.559-1.78-2.335-4.204-2.335-7.21 0-3.253.82-5.83 2.46-7.733 1.642-1.933 3.849-2.884 6.62-2.884ZM330.883 124.112c1.51 0 2.829.368 3.955 1.135.61.399 1.233 1.013 1.869 1.81v-2.424h2.985v17.52c0 2.455-.359 4.358-1.08 5.8-1.34 2.608-3.875 3.897-7.603 3.897-2.075 0-3.817-.46-5.232-1.381-1.414-.92-2.206-2.393-2.375-4.357h3.293c.153.859.466 1.534.932 1.994.734.706 1.884 1.074 3.452 1.074 2.483 0 4.106-.859 4.873-2.639.457-1.012.666-2.853.629-5.492-.648.982-1.424 1.688-2.335 2.179-.912.49-2.117.736-3.615.736-2.086 0-3.912-.767-5.474-2.24-1.565-1.473-2.347-3.927-2.347-7.333 0-3.222.789-5.738 2.366-7.548 1.574-1.81 3.476-2.731 5.707-2.731Zm5.824 9.88c0-2.363-.491-4.142-1.473-5.278-.982-1.166-2.237-1.749-3.759-1.749-2.277 0-3.835 1.074-4.673 3.222-.445 1.135-.666 2.608-.666 4.48 0 2.148.442 3.805 1.323 4.94.88 1.135 2.065 1.688 3.55 1.688 2.325 0 3.96-1.044 4.909-3.13.525-1.197.789-2.578.789-4.173ZM350.364 141.632c2.145 0 3.617-.828 4.415-2.455.795-1.595 1.194-3.405 1.194-5.4 0-1.81-.286-3.252-.862-4.388-.912-1.78-2.483-2.67-4.71-2.67-1.98 0-3.415.768-4.314 2.271-.9 1.504-1.35 3.345-1.35 5.462 0 2.056.45 3.774 1.35 5.124.899 1.381 2.322 2.056 4.277 2.056Zm.126-17.735c2.482 0 4.578.828 6.293 2.485 1.715 1.657 2.571 4.081 2.571 7.303 0 3.1-.755 5.676-2.264 7.702-1.513 2.025-3.854 3.037-7.03 3.037-2.651 0-4.753-.89-6.312-2.7-1.558-1.78-2.338-4.204-2.338-7.21 0-3.253.823-5.83 2.464-7.733 1.642-1.933 3.848-2.884 6.616-2.884ZM362.134 139.791h3.759v3.918h-3.759zM369.75 124.45h3.2v2.73c.767-.92 1.46-1.626 2.083-2.056 1.068-.736 2.28-1.104 3.633-1.104 1.535 0 2.768.399 3.704 1.135.528.43 1.006 1.074 1.439 1.902.718-1.012 1.565-1.78 2.534-2.27.97-.522 2.062-.767 3.271-.767 2.59 0 4.351.95 5.287 2.823.503 1.012.755 2.362.755 4.05v12.826h-3.363V130.34c0-1.29-.32-2.179-.96-2.64-.642-.49-1.424-.736-2.348-.736-1.27 0-2.362.43-3.28 1.289-.917.86-1.374 2.27-1.374 4.265v11.2h-3.293v-12.58c0-1.29-.153-2.24-.466-2.854-.491-.89-1.409-1.35-2.75-1.35-1.224 0-2.334.49-3.335 1.442-1 .92-1.503 2.639-1.503 5.124v10.218h-3.234v-19.27ZM406.598 124.02c1.365 0 2.69.337 3.973.982 1.283.613 2.259 1.472 2.93 2.485.648.951 1.08 2.086 1.295 3.375.19.89.289 2.301.289 4.265H400.97c.062 1.933.522 3.529 1.384 4.695.865 1.196 2.2 1.78 4.01 1.78 1.691 0 3.038-.553 4.045-1.688a5.516 5.516 0 0 0 1.224-2.24h3.182c-.083.706-.362 1.503-.838 2.363a9.344 9.344 0 0 1-1.59 2.147c-.981.952-2.2 1.596-3.65 1.933-.78.185-1.66.277-2.643.277-2.396 0-4.427-.86-6.093-2.608-1.666-1.75-2.501-4.204-2.501-7.334 0-3.099.84-5.584 2.52-7.517 1.674-1.933 3.868-2.915 6.578-2.915Zm5.16 8.53c-.131-1.412-.438-2.516-.917-3.375-.887-1.535-2.369-2.332-4.44-2.332-1.488 0-2.734.552-3.74 1.626-1.006 1.074-1.54 2.424-1.602 4.08h10.7Z"/></g><circle cx="3581" cy="4553.2" r="107.2" transform="translate(-3473.8 -4446)"/><path fill="#fff" d="M108.055 140.122c0 1.27 2.13 6.353 5.42 12.933 6.135 12.27 7.791 17.186 8.17 24.24.551 10.281-2.974 18.923-11.16 27.351-1.542 1.585-2.76 2.922-2.708 2.965.232.205 5.324-3.185 7.669-5.104 5.153-4.223 9.422-10.913 11.166-17.507 1.114-4.202 1.132-11.354.043-15.785-1.702-6.925-5.33-13.376-11.956-21.253-1.885-2.24-4.15-5.052-5.034-6.245-.888-1.194-1.61-1.913-1.61-1.595Zm-4.25-28.18c-.389.663-2.341 3.555-4.34 6.429-5.952 8.562-7.907 13.737-8.333 22.027-.269 5.275.48 10.276 2.35 15.64 2.167 6.23 4.723 10.928 12.52 23.037 5.144 7.987 6.622 11.669 6.595 16.455-.016 3.149.119 3.032 1.86-1.585 1.025-2.718 1.138-3.44 1.15-7.278.016-6.343-1.434-11.01-7.371-23.704-5.582-11.94-7.583-17.807-8.342-24.447-.701-6.133-.061-10.552 2.809-19.35 1.487-4.556 2.387-8.427 1.965-8.427-.09 0-.475.541-.863 1.202Zm-20.709-7.223c-7.66 7.736-12.197 16.2-14.55 27.14-.958 4.441-.95 15.188.015 19.607 1.977 9.062 6.28 17.67 12.078 24.163 2.537 2.843 7.43 6.904 13.59 11.277 2.803 1.99 6.23 4.734 7.623 6.1 1.497 1.471 2.427 2.169 2.283 1.716-1.086-3.424-3.48-6.576-7.947-10.463-5.836-5.077-11.629-12.133-15.053-18.333-1.848-3.348-3.81-8.654-4.762-12.88-3.247-14.423-.924-29.485 7.011-45.453 1.671-3.363 3.011-6.115 2.98-6.115-.033 0-1.502 1.46-3.268 3.241ZM36.02 128.29c-.16.792-.2 4.042-.083 7.225.224 6.169 1.074 10.594 3.036 15.809 4.52 12.005 14.937 22.48 29.821 29.977 2.555 1.288 10.971 4.997 11.335 4.997.086 0-2.304-1.658-5.312-3.684-14.766-9.946-23.732-19.524-30.363-32.444-3.192-6.225-6.574-15.604-7.8-21.65l-.34-1.669-.294 1.439Zm95.74-83.255c0 .082 1.02 1.358 2.262 2.833 2.524 2.996 3.791 4.756 5.46 7.587l1.134 1.921-2.855-2.393c-4.77-4.006-9.517-6.142-15.285-6.882-4.318-.554-8.174-.08-16.553 2.041-11.344 2.867-17.531 3.825-26.017 4.027l-3.52.086 4.077.924c3.61.823 4.911.927 11.481.927 6.29 0 8.021-.128 11.482-.847 2.24-.469 4.407-.949 4.814-1.068.407-.12-.554.648-2.133 1.71-4.21 2.828-7.565 6.904-12.363 15.023-6.62 11.19-7.745 13-9.774 15.69-2.856 3.782-5.126 6.067-11.216 11.285-6.353 5.444-9.483 9.266-12.482 15.246-6.754 13.465-6.607 30.632.388 45.66 1.38 2.966 4.838 9.062 5.031 8.869.052-.052-.49-2.093-1.2-4.532-2.16-7.418-2.833-12.036-2.854-19.625-.031-9.765 1.53-17.385 5.266-25.764 3.547-7.944 7.693-13.036 17.143-21.05 6.026-5.108 9.976-10.16 12.403-15.867l.909-2.136-.165 3.332c-.22 4.434-1.298 8.422-4.199 15.518-1.322 3.238-2.727 7.152-3.124 8.7-.879 3.437-1.448 9.6-1.172 12.66l.208 2.268.459-1.337c1.019-2.963 3.045-5.582 7.834-10.117 5.193-4.918 6.047-6.206 6.034-9.086-.006-.86-.333-2.28-.731-3.155l-.72-1.588 1.148.664c2.048 1.181 4.413 3.785 5.408 5.949.743 1.619 1.013 2.882 1.132 5.352l.156 3.231 1.698-1.493c.934-.823 2.957-2.258 4.493-3.192 1.536-.936 3.684-2.27 4.77-2.968 1.877-1.203 1.965-1.224 1.708-.41-.48 1.515-1.915 3.498-4.685 6.475-3.715 3.99-4.915 5.585-6.276 8.324-1.543 3.109-1.843 6.497-.79 8.868 1.772 3.988 4.309 5.53 9.083 5.52 1.683-.002 3.256-.13 3.494-.28.33-.212.313-.802-.073-2.458-2.482-10.683.924-21.975 9.621-31.89l1.628-1.858-.746-2.218c-.407-1.218-1.482-3.758-2.384-5.643l-1.64-3.428h-2.608c-3.684 0-6.142-1.358-8.17-4.516-.916-1.43-1.433-1.846-2.672-2.167a708.07 708.07 0 0 1-4.502-1.193l-2.965-.796 1.852-.3c1.019-.162 4.02-.324 6.668-.358 4.486-.058 4.988.01 7.341.967 1.39.566 2.607.949 2.705.85.34-.342-.7-5.287-1.573-7.457-.483-1.206-.817-2.252-.74-2.329.318-.321 3.61 3.804 4.523 5.668.746 1.527 1.05 2.833 1.224 5.297.214 3.05.321 3.388 1.61 5.04 2.203 2.828 2.383 2.898 5.756 2.258 4.336-.823 6.343-.162 7.782 2.556.428.804.578 2.062.553 4.562l-.04 3.452 1.283 1.178 1.282 1.179-2.702.045c-2.944.046-8.575 1.304-10.717 2.39-.74.377-2.04 1.475-2.892 2.442-1.63 1.852-4.155 6.026-3.901 6.442.085.135 1.117.355 2.292.496 4.593.538 14.737 4.581 19.233 7.663 2.075 1.423 5.315 4.366 5.315 4.828 0 .172-.875-.03-1.943-.452-1.07-.423-4.446-1.494-7.5-2.381-3.057-.888-6.974-2.265-8.703-3.063-3.247-1.494-7.287-2.91-8.863-3.113-1.058-.131-1.279.49-1.79 5.019-.23 2.017-.208 2.938.067 3.014 1.711.462 5.392 1.846 8.177 3.07 1.833.808 4.416 1.735 5.741 2.062 2.895.716 12.094 2.096 13.985 2.096 2.151 0 .958.68-2.283 1.301-3.608.689-11.111.7-14.315.021-1.356-.287-4.245-1.429-6.546-2.585-2.265-1.139-4.32-2.072-4.569-2.072-.658 0-.165 4.1.735 6.135 1.089 2.46 3.767 5.093 6.423 6.314 2.06.945 2.711 1.058 6.013 1.052 4.603-.012 7.495-.79 14.628-3.935l5.199-2.292.771-2.433c2.369-7.497.683-12.265-5.848-16.516-3.926-2.558-5.505-3.981-6.448-5.811-1.022-1.98-.884-2.24.64-1.209 1.628 1.105 1.45 1.102 4.612.141 2.497-.759 2.616-.762 5.425-.138 4.45.992 8.912 1.105 12.761.325 2.748-.56 3.562-.597 4.949-.227 2.237.6 2.289.59 3.375-.572l.955-1.019-.276 1.294c-.572 2.703-1.82 4.453-5 7.011-6.937 5.585-10.597 10.5-12.36 16.593l-.557 1.937 1.735 1.496c2.473 2.133 5.76 3.706 7.74 3.706 1.933 0 3.94-.961 5.532-2.65.982-1.05 2.356-3.238 2.356-3.764 0-.083-1.625-.242-3.614-.352-1.983-.11-4.526-.499-5.646-.863l-2.038-.664 3.477-.306c4.422-.392 7.292-1.487 8.464-3.229.924-1.374 1.842-4.238 2.023-6.319.1-1.193.036-1.288-.811-1.166-.508.07-1.567.46-2.353.86-.784.398-1.49.664-1.564.588-.29-.288 2.482-3.994 3.727-4.988 1.203-.961 1.298-1.185 1.291-3.073-.009-2.913-.908-6.76-2.083-8.92-1.283-2.357-4.98-5.87-10.873-10.334-7.914-5.99-14.074-12.71-17.088-18.637l-1.09-2.145 1.12.578c.615.319 1.686 1.077 2.378 1.683.692.61 1.337 1.105 1.435 1.105.426 0 2.198-4.615 2.51-6.527.186-1.15.407-2.158.486-2.237.426-.426 1.17 3.822 1.15 6.582l-.02 3.186 5.23-2.387-.007-2.179c-.01-2.635-.933-4.7-3.314-7.418-3.225-3.678-16.95-13.45-22.609-16.096-2.6-1.215-8.703-3.11-8.703-2.7Zm24.261 93.072c-1.63.606-5.796 2.185-9.26 3.51-6.99 2.671-11.414 3.941-13.682 3.929-1.753-.01-4.416-1.114-4.939-2.053-.652-1.16-.893.609-.459 3.329.48 2.999 1.686 5.805 3.786 8.807l1.59 2.27.111-1.893.11-1.895 1.484 2.813c1.368 2.6 3.544 6.04 3.82 6.04.064 0-.022-.71-.187-1.576-.169-.866-.312-2.157-.322-2.87l-.015-1.294.695 1.11c.38.61 1.23 1.61 1.888 2.222.655.612 1.692 1.83 2.304 2.711.61.882 1.178 1.53 1.264 1.448.086-.086-.242-1.524-.728-3.198l-.882-3.042 1.075 1.028c1.169 1.12 3.27 5.034 3.27 6.09 0 .364.194.777.426.921.312.196.374-1.147.239-5.162-.101-2.984-.113-5.426-.028-5.426.389 0 2.724 5.686 3.41 8.311.422 1.604.829 2.981.905 3.06.266.267 4.627-4.752 6.222-7.16.875-1.322 1.655-2.216 1.732-1.99.23.695-.677 3.792-1.628 5.558l-.897 1.665 1.533-1.665c.842-.918 2.176-2.65 2.96-3.856 1.627-2.497 1.615-2.521.86 1.821-.313 1.787-.481 3.332-.377 3.44.321.318 3.794-7.378 4.275-9.46.245-1.07.581-1.86.75-1.756.465.288 1.413 3.452 1.716 5.735l.273 2.038.275-1.481c.41-2.191.37-9.285-.064-11.965-.842-5.19-2.525-8.21-5.466-9.811-2.827-1.54-4.538-1.604-8.039-.303ZM71.755 79.797c-6.76 1.98-12.736 4.786-16.439 7.721-1.19.943-1.368 1-1.016.346.756-1.411 4.615-5.356 6.901-7.054 2.57-1.91 1.888-1.796-3.072.511-8.486 3.948-15.418 10.35-18.983 17.535-.633 1.276-1.23 2.24-1.33 2.139-.331-.327.654-6.335 1.373-8.382.967-2.757 2.687-5.52 5.478-8.804 1.319-1.555 1.995-2.58 1.536-2.335-1.54.826-8.333 7.978-10.31 10.852-8.703 12.672-11.47 30.987-7.053 46.747 1.132 4.042 2.145 6.72 4.11 10.872 1.946 4.113 2.567 4.771 1.422 1.51-2.916-8.315-4.324-19.672-3.375-27.227.878-6.959 3.48-14.013 7.2-19.506 3.171-4.679 5.243-6.885 3.74-3.981-.955 1.848-2.396 8.535-2.644 12.259-.404 6.09.9 13.547 3.798 21.736.74 2.097 1.39 3.764 1.438 3.703.046-.058-.067-1.359-.26-2.886-.603-4.856-.474-14.59.251-18.703 2.92-16.58 13.437-29.7 29.827-37.2 3.085-1.41 2.641-1.386-2.592.147ZM50.402 61.47c-5.744 1.505-10.322 4.085-14.925 8.406C28.65 76.29 25.164 83.47 23.79 93.947c-.572 4.37-.743 13.83-.306 17.012l.245 1.808.517-2.588c2.13-10.684 9.129-22.802 17.14-29.672 3.786-3.247 9.771-6.821 14.224-8.492 2.717-1.022 1.564-1.037-2.393-.033-5.19 1.315-9.294 3.069-13.162 5.618-2.852 1.879-3.32 2.093-2.705 1.23.676-.952 3.296-3.299 6.647-5.961 1.202-.958 1.218-.995.254-.655-1.745.612-2.947 1.331-6.512 3.89-1.898 1.361-3.529 2.399-3.624 2.304-.382-.383 4.566-5.998 7.764-8.807 3.856-3.388 7.326-5.805 10.922-7.605 2.13-1.065 2.32-1.236 1.362-1.227-.612.003-2.302.321-3.761.7Zm111.316 16.234c-.835.747-1.098 1.242-.933 1.766.337 1.055 2.32 3.118 2.996 3.118 1.313 0 2.522-3.534 1.83-5.34-.38-.991-2.558-.737-3.893.456Zm-40.792.468c-.358.208-.648.637-.648.952 0 .903 2.408 3.094 3.4 3.094 1.19 0 2.524-.992 2.524-1.873 0-.75-.897-.992-1.294-.349-.368.594-1.938.425-2.191-.239-.129-.333-.135-.915-.016-1.294.248-.783-.67-.933-1.775-.29Zm21.085-13.691c1.64 2.286 2.402 4.9 1.977 6.784-.352 1.561-.615 1.947-3.119 4.563-1.025 1.071-1.784 1.943-1.689 1.94.095 0 1.09-.25 2.21-.55 4.04-1.084 7.25-.356 10.784 2.441.79.628 1.438.992 1.438.811 0-.18-.915-1.79-2.038-3.574-1.582-2.521-2.035-3.571-2.035-4.716 0-1.9-1.016-3.83-3.027-5.765-1.343-1.291-5.116-3.828-5.695-3.828-.091 0 .444.854 1.194 1.894Zm-62.54-46.33C65.833 19.4 53.745 25.698 43.7 36.792c-2.53 2.794-3.675 4.608-1.852 2.937 2.672-2.454 8.655-5.297 13.046-6.206 3.189-.658 8.217-.731 11.678-.174 3.087.499 3.488.924 1.169 1.23-3.137.416-10.04 2.782-14.69 5.034-5.9 2.858-10.248 5.992-15.184 10.95-4.345 4.363-7.112 7.986-10.12 13.26-1.78 3.12-4.7 9.81-4.406 10.104.076.076.951-1.148 1.949-2.72 6.197-9.781 15.255-18.209 24.809-23.071 2.947-1.5 8.65-3.562 11.656-4.214.664-.144 1.236-.796 2.013-2.295 2.277-4.386 7.201-8.257 13.22-10.396 2.33-.829 3.388-.976 7.176-1.013 2.446-.021 5.028.07 5.741.212 2.403.465-2.117-1.427-5.184-2.17-2.32-.563-4.357-.676-12.301-.676h-9.524l1.365-.698c5.668-2.907 14.53-4.385 21.366-3.565 9.346 1.12 16.816 4.642 28.873 13.617 2.017 1.5 4.434 3.116 5.37 3.59 2.155 1.093 4.48 1.75 4.48 1.273 0-.621-2.43-3.996-5.208-7.231C108.98 22.73 94.57 16.767 79.47 18.15Zm1.361 18.32c-2.947.658-4.535 1.365-6.714 2.99-2.274 1.695-3.626 3.225-4.74 5.35-3.474 6.63-2.5 14.403 2.534 20.245 3.678 4.266 8.8 4.043 12.072-.53.814-1.131 1.41-2.129 1.328-2.212-.083-.082-.869.218-1.75.668-.983.501-2.528.878-4.018.976-2.62.171-2.617.202-.196-1.616.725-.545.728-.566.036-.988-2.625-1.613-4.666-4.539-4.666-6.702 0-1.3 1.75-3.544 3.494-4.483.726-.392 1.322-.836 1.322-.986 0-.15-.667-.45-1.48-.67-.815-.22-1.482-.545-1.482-.722 0-.502 5.117-2.497 7.7-3.002 4.363-.85 8.834.242 12.259 2.993l1.456 1.172 8.159-3.158-3.213-2.344c-4.634-3.379-10.702-6.332-14.35-6.984-3.574-.636-4.874-.636-7.751.003Zm37.27-24.659c10.548 3.385 19.514 12.526 23.863 24.326l.943 2.558-.202-2.65c-.114-1.457-.53-3.7-.93-4.982-.402-1.285-.662-2.4-.582-2.482.324-.324 4.379 2.715 5.732 4.3 2.943 3.445 4.835 9.03 4.835 14.285v2.387l2.613 1.937 2.616 1.94 1.295-1.255c1.793-1.738 3.455-5.288 3.941-8.434.762-4.939-.863-11.09-4.3-16.261-1.618-2.433-8.262-9.22-8.647-8.835-.095.098.486 1.013 1.294 2.035 3.112 3.938 5.637 9.465 6.592 14.438.566 2.94.713 9.691.214 9.691-.168 0-.508-.872-.753-1.934-.59-2.561-2.781-7.641-4.654-10.787-5.824-9.792-15.445-17.14-25.978-19.848-3.41-.875-7.485-1.503-9.606-1.475-1.337.018-1.169.122 1.714 1.046Zm-22.456 2.941-1.851.254 3.332 1.044c9.664 3.026 19.221 9.731 24.65 17.29 3.008 4.192 3.005 4.192 2.206 1.508-.388-1.3-1.172-3.295-1.744-4.434-1.108-2.212-4.924-6.53-7.295-8.26-1.818-1.324-1.43-1.318 2.827.05 7.339 2.36 13.352 7.231 17.156 13.9.694 1.223 1.27 1.973 1.273 1.667.012-1.435-2.087-6.567-3.679-8.982-4.847-7.356-11.916-11.638-22.155-13.412-3.725-.646-12-.995-14.72-.625Z"/></svg>